HIERARCHY
ROOT Hips
{
  OFFSET -2.34488 91.5937 131.183
  CHANNELS 6 Xposition Yposition Zposition Zrotation Xrotation Yrotation
  JOINT ToSpine
  {
    OFFSET -2.69724 7.43032 -0.144315
    CHANNELS 3 Zrotation Xrotation Yrotation
    JOINT Spine
    {
      OFFSET -0.0310711 10.7595 1.96963
      CHANNELS 3 Zrotation Xrotation Yrotation
      JOINT Spine1
      {
        OFFSET 13.1342 3.43533 0.764692
        CHANNELS 3 Zrotation Xrotation Yrotation
        JOINT Neck
        {
          OFFSET 29.8703 7.82586 -0.130764
          CHANNELS 3 Zrotation Xrotation Yrotation
          JOINT Head
          {
            OFFSET 9.52751 0.295786 -0.907742
            CHANNELS 3 Zrotation Xrotation Yrotation
            End Site
            {
              OFFSET 16.4037 0.713936 2.7358
            }
          }
        }
        JOINT LeftShoulder
        {
          OFFSET 27.5574 4.95586 2.47156
          CHANNELS 3 Zrotation Xrotation Yrotation
          JOINT LeftArm
          {
            OFFSET 1.20734 -0.998971 20.1238
            CHANNELS 3 Zrotation Xrotation Yrotation
            JOINT LeftForeArm
            {
              OFFSET 26.8049 -0.0536703 -0.155908
              CHANNELS 3 Zrotation Xrotation Yrotation
              JOINT LeftHand
              {
                OFFSET 26.6817 0 0.320147
                CHANNELS 3 Zrotation Xrotation Yrotation
                End Site
                {
                  OFFSET 18.6119 0 0.382219
                }
              }
            }
          }
        }
        JOINT RightShoulder
        {
          OFFSET 27.5927 4.71444 -2.65209
          CHANNELS 3 Zrotation Xrotation Yrotation
          JOINT RightArm
          {
            OFFSET 2.83739 -1.17114 -18.7564
            CHANNELS 3 Zrotation Xrotation Yrotation
            JOINT RightForeArm
            {
              OFFSET 28.839 -0.0548439 1.22491
              CHANNELS 3 Zrotation Xrotation Yrotation
              JOINT RightHand
              {
                OFFSET 26.5114 0 -0.101894
                CHANNELS 3 Zrotation Xrotation Yrotation
                End Site
                {
                  OFFSET 18.2168 0 0
                }
              }
            }
          }
        }
      }
    }
  }
  JOINT LeftUpLeg
  {
    OFFSET -4.76168 -1.9167 -10.2353
    CHANNELS 3 Zrotation Xrotation Yrotation
    JOINT LeftLeg
    {
      OFFSET 2.55951 -42.0585 -8.02213
      CHANNELS 3 Zrotation Xrotation Yrotation
      JOINT LeftFoot
      {
        OFFSET 3.16357 -42.5282 -3.95426
        CHANNELS 3 Zrotation Xrotation Yrotation
        JOINT LeftToeBase
        {
          OFFSET 0.346054 -6.02161 12.8035
          CHANNELS 3 Zrotation Xrotation Yrotation
          End Site
          {
            OFFSET 0.134235 -1.35082 5.13018
          }
        }
      }
    }
  }
  JOINT RightUpLeg
  {
    OFFSET -4.94151 -1.41743 10.6446
    CHANNELS 3 Zrotation Xrotation Yrotation
    JOINT RightLeg
    {
      OFFSET -2.56294 -42.0364 -7.94377
      CHANNELS 3 Zrotation Xrotation Yrotation
      JOINT RightFoot
      {
        OFFSET -3.0952 -42.555 -4.02241
        CHANNELS 3 Zrotation Xrotation Yrotation
        JOINT RightToeBase
        {
          OFFSET -0.0828122 -6.13587 12.8035
          CHANNELS 3 Zrotation Xrotation Yrotation
          End Site
          {
            OFFSET -0.131328 -1.35082 5.13018
          }
        }
      }
    }
  }
}
MOTION
Frames:	20
Frame Time:	0.0333333
-9.55095 91.9625 8.71271 13.9749 -66.6505 -77.3034 -70.1915 0 88.8779 76.7511 76.9931 9.97284 0.790577 30.345 -0.972399 -157.775 28.9317 174.38 -172.465 68.7191 -152.905 1.0475 -10.3413 -32.7442 -88.5975 46.7191 -69.542 4.28973 40.5523 -11.839 2.35562 -0.121526 -3.69966 -2.34493 7.36195 46.0934 -71.7432 -33.0136 87.8034 10.1188 -10.2881 45.0751 0.58676 0.000330102 0.0646656 -27.439 -3.55773 91.7178 -3.66853 48.7345 -6.72136 3.82117 -11.73 -1.12203 0.854369 -3.92932 5.94195 -63.1383 3.24727 92.9928 4.42738 47.9662 13.4703 -1.29752 0.133294 0.283169 3.32921 -22.3412 14.4321 
-8.4525 92.1682 12.0891 11.0034 -67.1318 -80.3905 -70.1915 0 88.8779 81.8221 76.941 5.01582 -0.606596 30.1106 -1.29886 -157.573 28.5752 173.706 -171.063 68.4207 -154.304 1.05862 -10.2711 -32.5593 -87.2098 47.4055 -70.9262 4.01511 37.0385 -11.843 2.33746 -0.128309 -4.03076 -2.34194 7.31065 46.2756 -70.4514 -34.3074 86.8114 9.65683 -10.9958 41.8451 0.58676 0.000330102 0.0646656 -29.818 -3.53621 92.3482 -3.69047 49.5285 -5.87952 4.57933 -14.2891 -1.24507 0.35667 -2.68013 5.05122 -59.5377 2.51085 92.8585 6.00969 55.7707 13.9239 3.04861 8.45868 -1.0956 2.07375 -17.6975 11.5886 
-7.51063 92.5144 15.1592 9.1914 -67.6797 -82.5713 -70.1915 0 88.8779 89.1704 76.4578 -2.94465 -2.1008 29.2069 -1.26841 -158.432 28.2199 173.432 -169.286 68.1192 -156.24 0.847157 -11.2235 -32.5936 -84.8195 48.3688 -73.1119 4.55128 32.148 -12.6307 2.3513 -0.144664 -4.68185 -2.31296 7.08659 46.8832 -69.773 -35.1342 85.8354 9.58585 -12.0388 39.1031 0.58676 0.000330102 0.0646656 -32.7319 -3.77226 93.2019 -3.74721 49.2277 -6.70005 4.479 -15.8461 -1.3046 0.0704386 -2.73612 6.84473 -54.2234 1.69466 92.4496 8.61731 65.0834 9.62551 3.69251 15.3247 -1.96995 1.70126 -13.8476 2.02144 
-6.7204 92.9688 18.2907 8.24042 -68.3513 -83.744 -70.1915 0 88.8779 91.4524 75.5184 -6.03343 -1.74878 27.517 -0.917766 -160.133 27.4802 174.467 -168.468 67.4141 -157.241 0.676999 -11.9276 -33.0211 -80.598 49.0459 -77.0343 5.49109 26.2217 -14.7742 1.97012 -0.131521 -5.08071 -2.38199 7.16139 47.4682 -69.5761 -35.3374 84.9978 9.05746 -12.4416 36.615 0.58676 0.000330102 0.0646656 -36.2829 -4.01033 93.9733 -3.44291 47.8502 -5.99942 4.63984 -17.5552 -1.37346 -0.0886325 -1.70473 4.77181 -48.57 0.354827 90.7419 11.4761 72.2083 -1.19779 -2.29547 13.9847 -0.393872 2.04013 -16.4714 -3.77865 
-5.85227 93.6145 21.5028 7.35219 -68.6015 -84.286 -70.1915 0 88.8779 91.0296 74.4199 -4.8746 -0.469802 25.92 -1.50054 -160.892 26.6314 175.793 -167.999 66.6108 -157.43 0.538877 -12.478 -33.3522 -76.5071 48.6512 -81.2925 6.44284 21.9254 -17.5843 1.59005 -0.107837 -5.00241 -2.32877 7.01888 47.4069 -68.6704 -35.9639 85.1301 7.48256 -11.3799 33.8193 0.58676 0.000330102 0.0646656 -39.9605 -4.21038 93.7819 -3.16408 45.5855 -6.15829 4.95517 -18.4407 -1.39963 0.0151751 -1.83994 4.5499 -42.907 -0.178257 88.372 11.3445 75.2695 -11.1308 -8.33602 8.05251 1.2309 1.68893 -14.4613 1.4722 
-4.99034 94.3287 24.7647 6.77715 -68.569 -84.6243 -70.1915 0 88.8779 90.91 73.4902 -4.58492 -0.358094 24.3724 -0.954529 -160.029 25.6872 176.307 -164.831 65.701 -159.655 0.418887 -12.9621 -33.4806 -73.511 47.7694 -84.5591 7.17554 18.7647 -21.0658 1.29544 -0.0828148 -4.49666 -2.19818 6.87383 46.2817 -68.0969 -37.3437 84.6751 6.60566 -11.0124 31.4328 0.58676 0.000330102 0.0646656 -43.818 -4.97249 92.9408 -2.87573 42.2309 -6.61215 3.67038 -19.0164 -1.46998 -0.0241077 -2.45586 6.5353 -37.6475 -1.03699 86.6659 9.63877 75.0137 -12.9593 -9.23092 2.41825 1.34271 1.33548 -12.1023 2.73522 
-4.29847 94.9177 28.0974 5.62386 -68.2334 -85.7825 -70.1915 0 88.8779 90.0064 72.6478 -3.71768 -0.363806 22.98 -0.304565 -160.076 24.6886 177.747 -164.357 64.7272 -160.278 0.423345 -12.9415 -33.217 -73.5751 46.5567 -85.5963 8.20527 17.6293 -25.0725 1.17963 -0.0693171 -3.99705 -2.18708 6.91068 45.9591 -68.4697 -37.9443 82.6447 6.79001 -11.6368 30.7579 0.58676 0.000330102 0.0646656 -47.4419 -5.94278 91.5548 -2.59152 38.9253 -6.80607 2.52163 -18.9346 -1.51265 0.182537 -3.54458 8.75478 -32.9613 -0.965852 85.6978 7.3485 71.5303 -9.68389 -9.53293 -0.961712 1.38741 1.8108 -14.6406 -1.15535 
-3.78654 95.2719 31.4694 4.91072 -68.0285 -86.4982 -70.1915 0 88.8779 88.9701 71.893 -3.14133 -0.164913 21.6609 0.526029 -159.359 23.6441 177.93 -161.865 63.6496 -162.079 0.380587 -13.1923 -32.5296 -73.9512 45.2689 -86.2525 8.99221 16.0241 -29.4824 1.09336 -0.0586097 -3.50591 -2.17556 6.80909 46.264 -69.5777 -37.7917 80.2136 6.41168 -11.1301 30.4212 0.58676 0.000330102 0.0646656 -50.7523 -6.24779 91.6092 -2.38655 36.7437 -8.88617 1.92604 -18.1346 -1.48599 1.15319 -5.82596 10.7327 -29.3149 -0.719097 84.7016 5.6075 65.5477 -4.51574 -8.86355 -3.59283 1.29 2.10731 -14.4202 -9.12771 
-3.53558 95.1399 34.9971 5.57351 -67.7985 -85.7148 -70.1915 0 88.8779 88.0105 71.1607 -3.21763 -0.0595578 20.257 1.99366 -159.185 22.777 177.963 -159.645 62.7231 -163.899 0.351628 -13.3904 -31.9302 -73.3745 43.3199 -87.0824 9.97317 14.446 -34.8254 0.911021 -0.0419656 -2.77783 -2.07982 6.48399 46.4329 -71.4978 -37.2115 77.245 6.90426 -11.7206 30.999 0.58676 0.000330102 0.0646656 -53.4684 -5.62875 93.3109 -1.96603 35.6186 -12.7507 2.30556 -17.948 -1.46128 2.06172 -7.82963 12.9683 -26.8186 -0.673254 82.8191 3.95641 57.3132 -0.448193 -10.2822 -4.13654 1.43316 2.23079 -16.6251 -13.0431 
-3.32054 94.6985 38.596 7.36687 -67.1435 -84.2551 -70.1915 0 88.8779 85.0161 70.3561 -1.39121 0.556422 19.1017 2.8399 -159.163 22.1005 177.358 -157.344 61.9358 -165.947 0.274135 -13.833 -31.424 -73.7157 40.8734 -87.4516 11.3115 13.8018 -39.5935 0.784117 -0.0293871 -2.08173 -2.01302 6.11125 47.3099 -72.4143 -36.1362 75.5921 6.56374 -11.3672 30.4794 0.58676 0.000330102 0.0646656 -55.5088 -5.42629 94.8723 -1.46571 35.046 -14.2343 2.04771 -20.124 -1.60926 1.19959 -5.73137 10.2076 -24.9569 -1.20517 81.2234 2.54568 47.0541 2.30347 -9.77674 -4.57892 1.39267 2.2706 -17.5671 -10.9531 
-3.00115 93.9064 42.315 9.08607 -66.1488 -83.2443 -70.1915 0 88.8779 80.8127 69.4744 1.79703 1.53301 18.1755 3.11697 -159.265 21.4669 177.077 -156.222 61.2555 -166.627 0.305458 -13.8454 -30.3942 -74.1867 38.8214 -88.5399 11.9777 13.0833 -42.7364 0.814596 -0.0269787 -1.75415 -1.99133 5.91079 48.0466 -73.5158 -35.2163 74.1296 6.65902 -11.7475 30.0251 0.58676 0.000330102 0.0646656 -57.2023 -5.97556 95.909 -1.29188 34.7083 -15.1367 3.03635 -20.5468 -1.58174 2.19787 -7.25178 9.24242 -23.5098 -1.65041 81.3736 2.07728 35.8411 4.35584 -6.49767 -5.22609 1.08869 2.09115 -15.5548 -7.96163 
-2.83169 93.0434 46.213 11.7253 -66.0567 -80.9678 -70.1915 0 88.8779 79.8635 68.7484 1.74177 2.39693 17.2995 3.74272 -159.173 20.9662 176.662 -154.948 60.6761 -167.512 0.268806 -14.1727 -29.6859 -74.9747 37.0522 -89.7466 12.229 12.3764 -44.8996 0.702967 -0.0195025 -1.34531 -1.88678 5.64583 47.8383 -73.9309 -34.8054 73.5582 6.52158 -11.8334 29.3284 0.58676 0.000330102 0.0646656 -60.0424 -6.20347 96.2427 -1.22902 34.5095 -16.8601 2.99759 -21.3368 -1.62978 2.93661 -8.5938 9.55096 -24.2686 -1.43637 83.9414 2.35962 24.1076 4.54527 -7.81512 -2.6693 1.18326 2.38213 -20.0477 -9.98249 
-2.62805 92.1732 50.3183 15.327 -66.2369 -77.6646 -70.1915 0 88.8779 79.3384 68.019 1.2507 3.68387 16.2782 4.29873 -158.992 20.5882 175.826 -152.79 60.1276 -169.175 0.240534 -14.4405 -29.0685 -76.2526 35.6023 -90.8354 12.1258 11.7905 -46.0148 0.744651 -0.0203194 -1.26604 -1.88133 5.47362 48.7527 -74.0545 -33.6647 73.1565 6.37544 -11.9041 28.576 0.58676 0.000330102 0.0646656 -63.2616 -6.39074 95.9426 -1.20191 34.498 -18.0096 2.97248 -21.5389 -1.64183 3.34122 -9.33884 9.81282 -24.7822 -1.89753 85.4937 2.39881 17.4076 5.6901 -9.04691 -0.937204 1.31732 2.0785 -23.6179 -16.6679 
-2.60152 91.3481 54.6861 18.8409 -66.2805 -73.9853 -70.1915 0 88.8779 79.6582 67.425 0.327535 4.35506 15.274 5.26736 -158.438 20.3374 175.451 -151.662 59.7443 -170.294 0.208737 -14.6261 -29.0111 -77.2975 34.5124 -91.6131 11.6588 11.1835 -46.3578 0.730599 -0.0212844 -1.13366 -1.83766 5.22546 49.5291 -74.4411 -32.426 72.3864 6.11955 -12.0667 27.5646 0.58676 0.000330102 0.0646656 -66.1907 -5.98274 94.3169 -1.63162 35.1408 -18.0307 2.22581 -20.3958 -1.61361 5.15244 -12.3645 9.526 -24.4858 -2.68079 85.4312 2.47553 17.4104 5.80191 -8.59008 -1.45946 1.26504 2.02532 -24.1282 -18.5869 
-2.68281 90.6665 59.487 19.5145 -66.0897 -72.4809 -70.1915 0 88.8779 79.702 67.0737 1.09113 4.45126 14.6992 5.951 -157.571 20.1797 175.373 -151.062 59.466 -171.334 0.192621 -14.6595 -29.2399 -78.0839 34.5164 -91.5233 11.2356 10.8233 -46.2063 0.802921 -0.0196915 -1.06399 -1.86501 5.20798 50.1205 -76.0222 -31.3512 70.7572 5.89301 -13.7159 26.2731 0.58676 0.000330102 0.0646656 -68.5089 -4.73779 92.0622 -2.58208 36.2418 -17.4962 1.34085 -16.8891 -1.41109 8.28812 -17.6138 8.26278 -23.0957 -2.26149 84.7582 2.22389 23.095 4.45068 -7.12434 -2.0391 1.10625 2.39154 -23.3026 -14.1857 
-2.77348 90.2331 64.731 17.6947 -66.5042 -72.8993 -70.1915 0 88.8779 81.0512 66.999 1.45503 4.33064 14.4262 6.55392 -157.479 19.828 175.343 -149.947 58.8315 -173.746 0.232031 -14.4195 -29.3429 -79.6046 36.0729 -89.9873 11.1756 10.8867 -45.886 0.939591 -0.0158798 -1.04009 -1.84794 5.22069 49.7396 -78.9873 -30.0184 68.9547 5.5361 -17.4412 24.7817 0.58676 0.000330102 0.0646656 -70.7983 -2.36259 91.2173 -3.31225 37.7978 -16.1292 -0.333657 -12.5701 -1.07891 10.51 -21.455 6.19184 -21.9744 -0.547841 83.5296 1.74568 30.7888 2.46594 -4.62225 -1.91655 0.819611 2.11664 -18.1566 -6.64779 
-3.0072 90.0605 70.1336 15.0567 -67.3082 -73.1362 -70.1915 0 88.8779 83.8745 66.6964 1.42979 4.5456 14.1486 6.95448 -158.091 19.3785 176.142 -150.65 58.3806 -174.002 0.265098 -14.1181 -30.0156 -81.5416 37.9247 -86.9855 11.1756 10.7798 -46.1599 0.773066 -0.0103955 -0.735608 -1.88524 5.30965 49.8253 -83.0597 -27.6079 67.6828 4.60504 -21.9589 23.0565 0.58676 0.000330102 0.0646656 -71.6578 0.318761 90.7199 -3.67524 41.7033 -15.3771 -2.37372 -6.61459 -0.41304 12.1036 -24.615 2.72133 -22.3877 2.59576 83.9733 1.65897 36.772 1.77051 -6.69593 -0.44517 1.00944 2.2252 -17.5514 -12.0915 
-3.16731 89.9562 75.4436 12.8518 -67.7292 -73.991 -70.1915 0 88.8779 84.637 66.4173 2.6114 4.83311 14.1804 6.91013 -158.129 19.1191 176.818 -152.419 58.3464 -172.269 0.23742 -14.1881 -30.4788 -81.8314 39.8215 -84.5454 10.0108 9.74647 -45.8172 0.420026 -0.00380778 -0.2935 -1.91092 5.43756 49.4714 -86.073 -26.3709 67.3776 4.15998 -25.5723 22.008 0.58676 0.000330102 0.0646656 -69.9536 3.5228 91.0082 -4.5306 48.1599 -15.2531 -5.773 2.28625 0.923108 12.2225 -24.7964 2.15515 -23.1863 4.5065 83.3286 1.79881 41.4992 -0.125392 -7.89427 -2.46519 1.18754 2.00728 -12.5445 -9.87778 
-3.44021 90.196 80.5565 12.5142 -68.263 -74.1162 -70.1915 0 88.8779 87.154 66.5742 0.760745 3.93417 14.4867 6.60932 -157.874 19.344 176.438 -153.497 58.664 -171.617 0.254307 -14.0555 -30.7511 -79.9371 41.2996 -84.5115 8.97844 9.4081 -43.6883 0.246641 -0.00112785 -0.239885 -1.94587 5.57832 49.2088 -86.1043 -27.4553 67.9395 4.51716 -24.5342 22.4234 0.58676 0.000330102 0.0646656 -66.193 4.32653 90.3991 -6.15341 57.2895 -14.0824 -9.34788 8.55585 2.45732 6.02735 -13.6634 6.32035 -25.306 5.33613 82.9514 1.98355 44.8152 -1.14129 -9.82987 -5.81503 1.3817 1.94072 -9.12891 -9.95653 
-3.64405 90.6516 85.4424 9.68857 -69.5528 -76.6027 -70.1915 0 88.8779 93.9519 67.3884 -4.07948 2.30595 15.9431 5.06834 -157.573 19.6932 175.587 -153.776 59.0223 -171.656 0.262603 -13.9815 -31.0282 -77.7084 42.5376 -85.3543 8.71638 9.94961 -41.2654 -0.0120501 0.00386353 0.000356965 -2.00547 5.74047 49.2329 -83.2722 -29.6869 70.3686 4.6234 -20.9549 23.246 0.58676 0.000330102 0.0646656 -61.4427 5.64529 90.9046 -8.8133 66.2603 -6.82012 -9.50796 9.34898 2.66665 4.03482 -10.6471 10.6088 -29.1068 7.05723 83.1612 2.03198 45.8421 -1.55205 -11.1016 -8.7111 1.42415 1.85356 -6.703 -10.156 
